<?xml version="1.0" standalone="no"?><!DOCTYPE svg PUBLIC "-//W3C//DTD SVG 1.1//EN" "http://www.w3.org/Graphics/SVG/1.1/DTD/svg11.dtd"><svg class="icon" height="512" viewBox="0 0 1024 1024" version="1.1" xmlns="http://www.w3.org/2000/svg"><path d="M707.490909 595.781818h116.363636c13.963636 0 27.927273-13.963636 27.927273-27.927273v-74.472727c0-13.963636-13.963636-27.927273-27.927273-27.927273h-116.363636c-13.963636 0-27.927273 13.963636-27.927273 27.927273v74.472727c0 13.963636 9.309091 27.927273 27.927273 27.927273z m0 0M833.163636 218.763636v0z m0 0M451.490909 819.2h116.363636c13.963636 0 27.927273-13.963636 27.927273-27.927273v-74.472727c0-13.963636-13.963636-27.927273-27.927273-27.927273H451.490909c-13.963636 0-27.927273 13.963636-27.927273 27.927273V791.272727c0 13.963636 13.963636 27.927273 27.927273 27.927273z m0 0M200.145455 819.2h116.363636c13.963636 0 27.927273-13.963636 27.927273-27.927273v-74.472727c0-13.963636-13.963636-27.927273-27.927273-27.927273H200.145455c-13.963636 0-27.927273 13.963636-27.927273 27.927273V791.272727c0 13.963636 13.963636 27.927273 27.927273 27.927273z m0 0M200.145455 595.781818h116.363636c13.963636 0 27.927273-13.963636 27.927273-27.927273v-74.472727c0-13.963636-13.963636-27.927273-27.927273-27.927273H200.145455c-13.963636 0-27.927273 13.963636-27.927273 27.927273v74.472727c0 13.963636 13.963636 27.927273 27.927273 27.927273z m0 0M707.490909 819.2h116.363636c13.963636 0 27.927273-13.963636 27.927273-27.927273v-74.472727c0-13.963636-13.963636-27.927273-27.927273-27.927273h-116.363636c-13.963636 0-27.927273 13.963636-27.927273 27.927273V791.272727c0 13.963636 9.309091 27.927273 27.927273 27.927273z m0 0M451.490909 595.781818h116.363636c13.963636 0 27.927273-13.963636 27.927273-27.927273v-74.472727c0-13.963636-13.963636-27.927273-27.927273-27.927273H451.490909c-13.963636 0-27.927273 13.963636-27.927273 27.927273v74.472727c0 13.963636 13.963636 27.927273 27.927273 27.927273z m0 0M242.036364 274.618182c32.581818 0 55.854545-23.272727 55.854545-55.854546V55.854545C302.545455 23.272727 274.618182 0 242.036364 0 214.109091 0 186.181818 23.272727 186.181818 55.854545v162.909091c0 27.927273 27.927273 55.854545 55.854546 55.854546z m0 0M777.309091 274.618182c32.581818 0 55.854545-23.272727 55.854545-55.854546V55.854545c0-27.927273-23.272727-55.854545-55.854545-55.854545s-55.854545 23.272727-55.854546 55.854545v162.909091c0 27.927273 27.927273 55.854545 55.854546 55.854546z m0 0M930.909091 97.745455h-60.509091v116.363636c0 46.545455-41.890909 88.436364-88.436364 88.436364-51.2 0-88.436364-41.890909-88.436363-88.436364V97.745455H335.127273v116.363636c0 46.545455-41.890909 88.436364-88.436364 88.436364-51.2 0-88.436364-41.890909-88.436364-88.436364V97.745455H93.090909c-51.2 0-93.090909 41.890909-93.090909 93.090909V930.909091c0 51.2 41.890909 93.090909 93.090909 93.090909h837.818182c51.2 0 93.090909-41.890909 93.090909-93.090909V190.836364c0-51.2-41.890909-93.090909-93.090909-93.090909z m9.309091 833.163636c0 4.654545-4.654545 13.963636-13.963637 13.963636H93.090909c-4.654545 0-13.963636-4.654545-13.963636-13.963636V344.436364h856.436363V930.909091z m0 0" /></svg>